# Blender v2.81 (sub 16) OBJ File: 'bathroom.blend'
# www.blender.org
mtllib bathtub.mtl
o bathtub_Cube.004
v -0.747855 -0.000014 2.330608
v -0.809731 1.537097 2.396684
v -0.747855 -0.000014 -2.330608
v -0.809731 1.537097 -2.396684
v 0.747855 -0.000014 2.330608
v 0.809731 1.537097 2.396684
v 0.747855 -0.000014 -2.330608
v 0.809731 1.537097 -2.396684
v -1.013321 1.537097 2.617411
v -1.013321 1.537097 -2.617411
v 1.013321 1.537097 -2.617411
v 1.013321 1.537097 2.617411
v -0.688086 0.036591 2.091866
v -0.688086 0.036591 -2.091866
v 0.688086 0.036591 -2.091866
v 0.688086 0.036591 2.091866
vn -0.9854 -0.1702 0.0000
vn 0.0000 -0.1834 -0.9830
vn 0.9854 -0.1702 0.0000
vn 0.0000 -0.1834 0.9830
vn 0.0000 -1.0000 0.0000
vn 0.9967 0.0808 0.0000
vn 0.0000 1.0000 0.0000
vn 0.0000 0.1991 0.9800
vn -0.9967 0.0808 0.0000
vn 0.0000 0.1991 -0.9800
usemtl m_white
s off
f 1//1 9//1 10//1 3//1
f 3//2 10//2 11//2 7//2
f 7//3 11//3 12//3 5//3
f 5//4 12//4 9//4 1//4
f 3//5 7//5 5//5 1//5
f 4//6 2//6 13//6 14//6
f 2//7 4//7 10//7 9//7
f 4//7 8//7 11//7 10//7
f 8//7 6//7 12//7 11//7
f 6//7 2//7 9//7 12//7
f 15//7 14//7 13//7 16//7
f 8//8 4//8 14//8 15//8
f 6//9 8//9 15//9 16//9
f 2//10 6//10 16//10 13//10
