# Blender v2.81 (sub 16) OBJ File: 'bathroom.blend'
# www.blender.org
mtllib carpet.mtl
o carpet_Cube.026
v -2.747674 -0.018876 1.604973
v -2.747674 0.018876 1.604973
v -2.747674 -0.018876 -1.604973
v -2.747674 0.018876 -1.604973
v 2.747674 -0.018876 1.604973
v 2.747674 0.018876 1.604973
v 2.747674 -0.018876 -1.604973
v 2.747674 0.018876 -1.604973
v -2.747674 0.000000 1.604973
v -2.747674 0.000000 -1.604973
v 2.747674 0.000000 -1.604973
v 2.747674 0.000000 1.604973
vn 0.0000 -1.0000 0.0000
vn 0.0000 0.0000 1.0000
vn 1.0000 0.0000 0.0000
vn 0.0000 0.0000 -1.0000
vn -1.0000 0.0000 0.0000
vn 0.0000 1.0000 0.0000
usemtl m_yellow
s off
f 3//1 7//1 5//1 1//1
f 5//2 12//2 9//2 1//2
f 7//3 11//3 12//3 5//3
f 3//4 10//4 11//4 7//4
f 1//5 9//5 10//5 3//5
usemtl m_blue
f 9//5 2//5 4//5 10//5
f 10//4 4//4 8//4 11//4
f 11//3 8//3 6//3 12//3
f 12//2 6//2 2//2 9//2
f 8//6 4//6 2//6 6//6
