# Blender v2.81 (sub 16) OBJ File: 'bathroom.blend'
# www.blender.org
mtllib chair.mtl
o chair_Cube
v 0.308975 0.004606 0.533486
v 0.161929 1.326340 0.225206
v 0.310503 -0.011019 0.469536
v 0.164278 1.302334 0.126957
v 0.374511 0.011018 0.533486
v 0.262615 1.336190 0.225206
v 0.376039 -0.004608 0.469536
v 0.264964 1.312184 0.126957
v -0.376040 0.004702 -0.024830
v -0.067760 1.334473 -0.042489
v -0.312090 -0.010998 -0.024830
v 0.030489 1.310352 -0.042489
v -0.376040 0.004702 0.041019
v -0.067760 1.334473 0.058678
v -0.312090 -0.010998 0.041019
v 0.030489 1.310352 0.058678
v 0.374510 0.011019 -0.533486
v 0.262615 1.336191 -0.225206
v 0.376039 -0.004606 -0.469536
v 0.264964 1.312185 -0.126957
v 0.308974 0.004608 -0.533486
v 0.161929 1.326341 -0.225206
v 0.310503 -0.011018 -0.469536
v 0.164278 1.302336 -0.126957
v 0.104586 1.299414 -0.514182
v 0.104586 1.403119 -0.514182
v 0.552217 1.299414 -0.255742
v 0.552217 1.403119 -0.255742
v 0.552217 1.299413 0.261139
v 0.552217 1.403119 0.261139
v 0.104586 1.299413 0.519579
v 0.104586 1.403119 0.519579
v -0.343046 1.299413 0.261138
v -0.343046 1.403119 0.261138
v -0.343046 1.299413 -0.255742
v -0.343046 1.403119 -0.255742
vn -0.9939 -0.1099 0.0031
vn 0.0244 -0.2498 -0.9680
vn 0.9964 0.0849 0.0031
vn -0.0220 0.2248 0.9742
vn 0.0946 -0.9665 0.2384
vn -0.0946 0.9665 -0.2384
vn -0.0031 -0.0126 -0.9999
vn 0.9680 -0.2510 -0.0000
vn -0.0031 -0.0126 0.9999
vn -0.9742 0.2258 0.0000
vn -0.2384 -0.9712 0.0000
vn 0.2384 0.9712 -0.0000
vn 0.9964 0.0849 -0.0031
vn 0.0244 -0.2498 0.9680
vn -0.9939 -0.1099 -0.0031
vn -0.0220 0.2248 -0.9742
vn 0.0946 -0.9665 -0.2384
vn -0.0946 0.9665 0.2384
vn 0.5000 0.0000 -0.8660
vn 1.0000 0.0000 0.0000
vn 0.5000 -0.0000 0.8660
vn -0.5000 -0.0000 0.8660
vn -0.0000 1.0000 0.0000
vn -1.0000 0.0000 0.0000
vn -0.5000 -0.0000 -0.8660
vn 0.0000 -1.0000 -0.0000
usemtl m_brown
s off
f 1//1 2//1 4//1 3//1
f 3//2 4//2 8//2 7//2
f 7//3 8//3 6//3 5//3
f 5//4 6//4 2//4 1//4
f 3//5 7//5 5//5 1//5
f 8//6 4//6 2//6 6//6
f 9//7 10//7 12//7 11//7
f 11//8 12//8 16//8 15//8
f 15//9 16//9 14//9 13//9
f 13//10 14//10 10//10 9//10
f 11//11 15//11 13//11 9//11
f 16//12 12//12 10//12 14//12
f 17//13 18//13 20//13 19//13
f 19//14 20//14 24//14 23//14
f 23//15 24//15 22//15 21//15
f 21//16 22//16 18//16 17//16
f 19//17 23//17 21//17 17//17
f 24//18 20//18 18//18 22//18
f 25//19 26//19 28//19 27//19
f 27//20 28//20 30//20 29//20
f 29//21 30//21 32//21 31//21
f 31//22 32//22 34//22 33//22
f 28//23 26//23 36//23 34//23 32//23 30//23
f 33//24 34//24 36//24 35//24
f 35//25 36//25 26//25 25//25
f 25//26 27//26 29//26 31//26 33//26 35//26
