# Blender v2.81 (sub 16) OBJ File: 'bathroom.blend'
# www.blender.org
mtllib clothes.mtl
o clothes_tree_Cube.042
v -0.282913 -0.047446 -0.580154
v -0.282913 0.047446 -0.580154
v -0.282913 -0.047446 -0.675046
v -0.282913 0.047446 -0.675046
v 0.048751 -0.047446 -0.580154
v 0.048751 0.047446 -0.580154
v 0.048751 -0.047446 -0.675046
v 0.048751 0.047446 -0.675046
v 0.048751 -0.000000 -0.785728
v 0.107356 0.000000 -0.785728
v 0.048751 -0.136943 -0.706664
v 0.107356 -0.136943 -0.706664
v 0.048751 -0.136943 -0.548536
v 0.107356 -0.136943 -0.548536
v 0.048751 0.000000 -0.469472
v 0.107356 0.000000 -0.469472
v 0.048751 0.136943 -0.548536
v 0.107356 0.136943 -0.548536
v 0.048751 0.136943 -0.706664
v 0.107356 0.136943 -0.706664
v -0.282913 -0.047446 0.675046
v -0.282913 0.047446 0.675046
v -0.282913 -0.047446 0.580154
v -0.282913 0.047446 0.580154
v 0.048752 -0.047446 0.675046
v 0.048752 0.047446 0.675046
v 0.048752 -0.047446 0.580154
v 0.048752 0.047446 0.580154
v 0.048751 0.000000 0.469472
v 0.107357 0.000000 0.469472
v 0.048752 -0.136943 0.548536
v 0.107357 -0.136943 0.548536
v 0.048752 -0.136943 0.706664
v 0.107357 -0.136943 0.706664
v 0.048752 -0.000000 0.785728
v 0.107357 0.000000 0.785728
v 0.048752 0.136943 0.706664
v 0.107357 0.136943 0.706664
v 0.048752 0.136943 0.548536
v 0.107357 0.136943 0.548536
vn -1.0000 0.0000 0.0000
vn 0.0000 0.0000 -1.0000
vn 1.0000 0.0000 0.0000
vn 0.0000 0.0000 1.0000
vn 0.0000 -1.0000 0.0000
vn 0.0000 1.0000 0.0000
vn 0.0000 -0.5000 -0.8660
vn -0.0000 -0.5000 0.8660
vn 0.0000 0.5000 0.8660
vn -0.0000 0.5000 -0.8660
usemtl m_grey
s off
f 1//1 2//1 4//1 3//1
f 3//2 4//2 8//2 7//2
f 7//3 8//3 6//3 5//3
f 5//4 6//4 2//4 1//4
f 3//5 7//5 5//5 1//5
f 8//6 4//6 2//6 6//6
f 9//7 10//7 12//7 11//7
f 11//5 12//5 14//5 13//5
f 13//8 14//8 16//8 15//8
f 15//9 16//9 18//9 17//9
f 12//3 10//3 20//3 18//3 16//3 14//3
f 17//6 18//6 20//6 19//6
f 19//10 20//10 10//10 9//10
f 9//1 11//1 13//1 15//1 17//1 19//1
f 21//1 22//1 24//1 23//1
f 23//2 24//2 28//2 27//2
f 27//3 28//3 26//3 25//3
f 25//4 26//4 22//4 21//4
f 23//5 27//5 25//5 21//5
f 28//6 24//6 22//6 26//6
f 29//7 30//7 32//7 31//7
f 31//5 32//5 34//5 33//5
f 33//8 34//8 36//8 35//8
f 35//9 36//9 38//9 37//9
f 32//3 30//3 40//3 38//3 36//3 34//3
f 37//6 38//6 40//6 39//6
f 39//10 40//10 30//10 29//10
f 29//1 31//1 33//1 35//1 37//1 39//1
