# Blender v2.81 (sub 16) OBJ File: 'bathroom.blend'
# www.blender.org
mtllib liquid_soap.mtl
o liquid_soap_Cube.024
v -0.108297 -0.000000 0.108297
v -0.108297 0.360798 0.108297
v -0.108297 -0.000000 -0.108297
v -0.108297 0.360798 -0.108297
v 0.108297 -0.000000 0.108297
v 0.108297 0.360798 0.108297
v 0.108297 -0.000000 -0.108297
v 0.108297 0.360798 -0.108297
v -0.064225 0.519059 0.048175
v -0.064225 0.538549 0.048175
v -0.017868 0.519059 -0.070124
v -0.017868 0.538549 -0.070124
v 0.054074 0.519059 0.048175
v 0.054074 0.538549 0.048175
v 0.007717 0.519059 -0.070124
v 0.007717 0.538549 -0.070124
v -0.005075 0.467412 0.008744
v -0.005075 0.525042 0.008744
v 0.004800 0.467412 0.014446
v 0.004800 0.525042 0.014446
v 0.004800 0.467412 0.025849
v 0.004800 0.525042 0.025849
v -0.005075 0.467412 0.031551
v -0.005075 0.525042 0.031551
v -0.014951 0.467412 0.025849
v -0.014951 0.525042 0.025849
v -0.014951 0.467412 0.014446
v -0.014951 0.525042 0.014446
v -0.005075 0.360798 -0.010640
v -0.005075 0.467412 -0.010640
v 0.021587 0.360798 0.004754
v 0.021587 0.467412 0.004754
v 0.021587 0.360798 0.035542
v 0.021587 0.467412 0.035542
v -0.005075 0.360798 0.050935
v -0.005075 0.467412 0.050935
v -0.031738 0.360798 0.035542
v -0.031738 0.467412 0.035542
v -0.031738 0.360798 0.004754
v -0.031738 0.467412 0.004754
vn -1.0000 0.0000 0.0000
vn 0.0000 0.0000 -1.0000
vn 1.0000 0.0000 0.0000
vn 0.0000 0.0000 1.0000
vn 0.0000 -1.0000 0.0000
vn 0.0000 1.0000 0.0000
vn -0.9311 0.0000 -0.3649
vn 0.9311 0.0000 -0.3649
vn 0.5000 0.0000 -0.8660
vn 0.5000 0.0000 0.8660
vn -0.5000 0.0000 0.8660
vn -0.5000 0.0000 -0.8660
usemtl m_pink
s off
f 1//1 2//1 4//1 3//1
f 3//2 4//2 8//2 7//2
f 7//3 8//3 6//3 5//3
f 5//4 6//4 2//4 1//4
f 3//5 7//5 5//5 1//5
f 8//6 4//6 2//6 6//6
usemtl m_white
f 9//7 10//7 12//7 11//7
f 11//2 12//2 16//2 15//2
f 15//8 16//8 14//8 13//8
f 13//4 14//4 10//4 9//4
f 11//5 15//5 13//5 9//5
f 16//6 12//6 10//6 14//6
f 17//9 18//9 20//9 19//9
f 19//3 20//3 22//3 21//3
f 21//10 22//10 24//10 23//10
f 23//11 24//11 26//11 25//11
f 20//6 18//6 28//6 26//6 24//6 22//6
f 25//1 26//1 28//1 27//1
f 27//12 28//12 18//12 17//12
f 17//5 19//5 21//5 23//5 25//5 27//5
f 29//9 30//9 32//9 31//9
f 31//3 32//3 34//3 33//3
f 33//10 34//10 36//10 35//10
f 35//11 36//11 38//11 37//11
f 32//6 30//6 40//6 38//6 36//6 34//6
f 37//1 38//1 40//1 39//1
f 39//12 40//12 30//12 29//12
f 29//5 31//5 33//5 35//5 37//5 39//5
