# Blender v2.81 (sub 16) OBJ File: 'bathroom.blend'
# www.blender.org
mtllib mirror.mtl
o mirror_Cube.015
v -1.257352 0.000000 0.025049
v -1.257352 1.681086 0.025049
v -1.213693 0.040916 -0.025049
v -1.213693 1.640170 -0.025049
v 1.257352 0.000000 0.025049
v 1.257352 1.681086 0.025049
v 1.213693 0.040916 -0.025049
v 1.213693 1.640170 -0.025049
v -1.257352 1.681086 -0.025049
v -1.257352 0.000000 -0.025049
v 1.257352 0.000000 -0.025049
v 1.257352 1.681086 -0.025049
v -1.213693 1.640170 0.019760
v -1.213693 0.040916 0.019760
v 1.213693 0.040916 0.019760
v 1.213693 1.640170 0.019760
vn -1.0000 0.0000 0.0000
vn 0.0000 -1.0000 0.0000
vn 1.0000 0.0000 0.0000
vn 0.0000 0.0000 1.0000
vn 0.0000 1.0000 0.0000
vn 0.0000 0.0000 -1.0000
usemtl m_grey
s off
f 1//1 2//1 9//1 10//1
f 4//2 8//2 16//2 13//2
f 11//3 12//3 6//3 5//3
f 5//4 6//4 2//4 1//4
f 10//2 11//2 5//2 1//2
f 12//5 9//5 2//5 6//5
f 4//6 3//6 10//6 9//6
f 3//6 7//6 11//6 10//6
f 8//6 4//6 9//6 12//6
f 7//6 8//6 12//6 11//6
f 14//6 13//6 16//6 15//6
f 8//1 7//1 15//1 16//1
f 3//3 4//3 13//3 14//3
f 7//5 3//5 14//5 15//5
