# Blender v2.81 (sub 16) OBJ File: 'bathroom.blend'
# www.blender.org
mtllib ornament1.mtl
o bathroom_ornament_Cube.009
v -0.353058 -0.856424 -0.103875
v -0.353058 -0.491518 -0.103875
v -0.315755 -0.856424 -0.082338
v -0.315755 -0.491518 -0.082338
v -0.315755 -0.856424 -0.039265
v -0.315755 -0.491518 -0.039265
v -0.353058 -0.856424 -0.017728
v -0.353058 -0.491518 -0.017728
v -0.390361 -0.856424 -0.039265
v -0.390361 -0.491518 -0.039265
v -0.390361 -0.856424 -0.082338
v -0.390361 -0.491518 -0.082338
v -0.353058 -0.673971 -0.243255
v -0.195049 -0.673971 -0.152028
v -0.195049 -0.673971 0.030425
v -0.353058 -0.673971 0.121652
v -0.511067 -0.673971 0.030425
v -0.511067 -0.673971 -0.152028
v 0.346557 -0.856424 -0.103876
v 0.346557 -0.491518 -0.103876
v 0.383860 -0.856424 -0.082339
v 0.383860 -0.491518 -0.082339
v 0.383860 -0.856424 -0.039265
v 0.383860 -0.491518 -0.039265
v 0.346557 -0.856424 -0.017728
v 0.346557 -0.491518 -0.017728
v 0.309254 -0.856424 -0.039265
v 0.309254 -0.491518 -0.039265
v 0.309254 -0.856424 -0.082339
v 0.309254 -0.491518 -0.082339
v 0.346557 -0.673971 -0.243255
v 0.504566 -0.673971 -0.152029
v 0.504566 -0.673971 0.030424
v 0.346557 -0.673971 0.121651
v 0.188548 -0.673971 0.030424
v 0.188548 -0.673971 -0.152029
v -0.351491 -0.491518 -0.066454
v -0.351491 0.962164 0.111672
v -0.351491 -0.491518 -0.071386
v -0.351491 0.962164 0.106740
v -0.346559 -0.491518 -0.066454
v -0.346559 0.962164 0.111672
v -0.346559 -0.491518 -0.071386
v -0.346559 0.962164 0.106740
v -0.479534 0.832091 0.121652
v -0.479534 1.095011 0.121652
v -0.479534 0.832091 0.111672
v -0.479534 1.095011 0.111672
v -0.216613 0.832091 0.121652
v -0.216613 1.095011 0.121652
v -0.216613 0.832091 0.111672
v -0.216613 1.095011 0.111672
v 0.348123 -0.491518 -0.066454
v 0.348123 0.962164 0.111672
v 0.348123 -0.491518 -0.071386
v 0.348123 0.962164 0.106740
v 0.353056 -0.491518 -0.066454
v 0.353056 0.962164 0.111672
v 0.353056 -0.491518 -0.071386
v 0.353056 0.962164 0.106740
v 0.220081 0.832091 0.121652
v 0.220081 1.095011 0.121652
v 0.220081 0.832091 0.111672
v 0.220081 1.095011 0.111672
v 0.483001 0.832091 0.121652
v 0.483001 1.095011 0.121652
v 0.483001 0.832091 0.111672
v 0.483001 1.095011 0.111672
v 0.001702 -0.110291 -0.066454
v 0.001702 0.795581 0.111671
v 0.001702 -0.110291 -0.071387
v 0.001702 0.795581 0.106739
v 0.006634 -0.110291 -0.066454
v 0.006635 0.795581 0.111671
v 0.006634 -0.110291 -0.071387
v 0.006635 0.795581 0.106739
v -0.126341 0.714525 0.121651
v -0.126341 0.878366 0.121651
v -0.126341 0.714525 0.111671
v -0.126341 0.878366 0.111671
v 0.136580 0.714525 0.121651
v 0.136580 0.878366 0.121651
v 0.136580 0.714525 0.111671
v 0.136580 0.878366 0.111671
v 0.000136 -0.337685 -0.103876
v 0.000136 -0.110291 -0.103876
v 0.037439 -0.337685 -0.082339
v 0.037439 -0.110291 -0.082339
v 0.037439 -0.337685 -0.039265
v 0.037439 -0.110291 -0.039265
v 0.000136 -0.337685 -0.017728
v 0.000136 -0.110291 -0.017728
v -0.037167 -0.337685 -0.039265
v -0.037167 -0.110291 -0.039265
v -0.037167 -0.337685 -0.082339
v -0.037167 -0.110291 -0.082339
v 0.000136 -0.223988 -0.243255
v 0.158145 -0.223988 -0.152029
v 0.158145 -0.223988 0.030424
v 0.000136 -0.223988 0.121651
v -0.157873 -0.223988 0.030424
v -0.157873 -0.223988 -0.152029
vn 0.4170 0.5518 -0.7223
vn 0.8340 0.5518 0.0000
vn 0.4170 0.5518 0.7223
vn -0.4170 0.5518 0.7223
vn 0.0000 1.0000 0.0000
vn -0.8340 0.5518 0.0000
vn -0.4170 0.5518 -0.7223
vn 0.0000 -1.0000 0.0000
vn -0.4170 -0.5518 -0.7223
vn -0.8340 -0.5518 0.0000
vn -0.4170 -0.5518 0.7223
vn 0.4170 -0.5518 0.7223
vn 0.8340 -0.5518 0.0000
vn 0.4170 -0.5518 -0.7223
vn -1.0000 0.0000 0.0000
vn 0.0000 0.1216 -0.9926
vn 1.0000 0.0000 0.0000
vn 0.0000 -0.1216 0.9926
vn 0.0000 0.0000 -1.0000
vn -0.0000 0.0000 1.0000
vn 0.0000 0.1929 -0.9812
vn 0.0000 -0.1929 0.9812
vn 0.3428 0.7279 -0.5938
vn 0.6857 0.7279 0.0000
vn 0.3428 0.7279 0.5938
vn -0.3428 0.7279 0.5938
vn -0.6857 0.7279 0.0000
vn -0.3428 0.7279 -0.5938
vn -0.3428 -0.7279 -0.5938
vn -0.6857 -0.7279 0.0000
vn -0.3428 -0.7279 0.5938
vn 0.3428 -0.7279 0.5938
vn 0.6857 -0.7279 -0.0000
vn 0.3428 -0.7279 -0.5938
usemtl m_orange
s off
f 13//1 2//1 4//1 14//1
f 14//2 4//2 6//2 15//2
f 15//3 6//3 8//3 16//3
f 16//4 8//4 10//4 17//4
f 4//5 2//5 12//5 10//5 8//5 6//5
f 17//6 10//6 12//6 18//6
f 18//7 12//7 2//7 13//7
f 1//8 3//8 5//8 7//8 9//8 11//8
f 11//9 18//9 13//9 1//9
f 9//10 17//10 18//10 11//10
f 7//11 16//11 17//11 9//11
f 5//12 15//12 16//12 7//12
f 3//13 14//13 15//13 5//13
f 1//14 13//14 14//14 3//14
usemtl m_yellow
f 31//1 20//1 22//1 32//1
f 32//2 22//2 24//2 33//2
f 33//3 24//3 26//3 34//3
f 34//4 26//4 28//4 35//4
f 22//5 20//5 30//5 28//5 26//5 24//5
f 35//6 28//6 30//6 36//6
f 36//7 30//7 20//7 31//7
f 19//8 21//8 23//8 25//8 27//8 29//8
f 29//9 36//9 31//9 19//9
f 27//10 35//10 36//10 29//10
f 25//11 34//11 35//11 27//11
f 23//12 33//12 34//12 25//12
f 21//13 32//13 33//13 23//13
f 19//14 31//14 32//14 21//14
usemtl m_white
f 37//15 38//15 40//15 39//15
f 39//16 40//16 44//16 43//16
f 43//17 44//17 42//17 41//17
f 41//18 42//18 38//18 37//18
f 39//8 43//8 41//8 37//8
f 44//5 40//5 38//5 42//5
f 45//15 46//15 48//15 47//15
f 47//19 48//19 52//19 51//19
f 51//17 52//17 50//17 49//17
f 49//20 50//20 46//20 45//20
f 47//8 51//8 49//8 45//8
f 52//5 48//5 46//5 50//5
f 53//15 54//15 56//15 55//15
f 55//16 56//16 60//16 59//16
f 59//17 60//17 58//17 57//17
f 57//18 58//18 54//18 53//18
f 55//8 59//8 57//8 53//8
f 60//5 56//5 54//5 58//5
f 61//15 62//15 64//15 63//15
f 63//19 64//19 68//19 67//19
f 67//17 68//17 66//17 65//17
f 65//20 66//20 62//20 61//20
f 63//8 67//8 65//8 61//8
f 68//5 64//5 62//5 66//5
f 69//15 70//15 72//15 71//15
f 71//21 72//21 76//21 75//21
f 75//17 76//17 74//17 73//17
f 73//22 74//22 70//22 69//22
f 71//8 75//8 73//8 69//8
f 76//5 72//5 70//5 74//5
f 77//15 78//15 80//15 79//15
f 79//19 80//19 84//19 83//19
f 83//17 84//17 82//17 81//17
f 81//20 82//20 78//20 77//20
f 79//8 83//8 81//8 77//8
f 84//5 80//5 78//5 82//5
f 97//23 86//23 88//23 98//23
f 98//24 88//24 90//24 99//24
f 99//25 90//25 92//25 100//25
f 100//26 92//26 94//26 101//26
f 88//5 86//5 96//5 94//5 92//5 90//5
f 101//27 94//27 96//27 102//27
f 102//28 96//28 86//28 97//28
f 85//8 87//8 89//8 91//8 93//8 95//8
f 95//29 102//29 97//29 85//29
f 93//30 101//30 102//30 95//30
f 91//31 100//31 101//31 93//31
f 89//32 99//32 100//32 91//32
f 87//33 98//33 99//33 89//33
f 85//34 97//34 98//34 87//34
