# Blender v2.81 (sub 16) OBJ File: 'bathroom.blend'
# www.blender.org
mtllib pillow.mtl
o pillow_Cube.049
v 2.487508 -0.122212 0.194667
v 2.493039 0.032922 0.224576
v 2.487508 -0.062437 -0.199755
v 2.493039 0.094593 -0.182356
v 2.553331 -0.111543 0.080616
v 2.553331 -0.086040 -0.087665
v 2.560950 0.083586 -0.064688
v 2.560950 0.057274 0.108931
v 2.389780 -0.059287 -0.295393
v 2.392211 0.120725 -0.277559
v 2.389780 -0.147541 0.286944
v 2.392211 0.029672 0.323247
v 2.395699 0.184121 -0.097851
v 2.395699 0.143469 0.170393
v 2.395699 -0.076988 -0.141633
v 2.395699 -0.118888 0.134844
v 2.500972 0.018020 -0.203138
v 2.500972 -0.046370 0.221736
v 2.571877 -0.000439 -0.081337
v 2.571877 -0.027911 0.099936
v 2.395699 -0.061709 0.322948
v 2.395699 0.033359 -0.304349
v 1.609488 -0.122212 0.194667
v 1.603957 0.032922 0.224576
v 1.609488 -0.062437 -0.199755
v 1.603957 0.094593 -0.182356
v 1.543665 -0.111543 0.080616
v 1.543665 -0.086040 -0.087665
v 1.536046 0.083586 -0.064688
v 1.536046 0.057274 0.108931
v 1.707216 -0.059287 -0.295393
v 2.048498 -0.049584 -0.359420
v 2.048498 0.130736 -0.343616
v 1.704784 0.120725 -0.277559
v 2.048498 -0.157244 0.350970
v 1.707216 -0.147541 0.286944
v 1.704784 0.029672 0.323247
v 2.048498 0.019661 0.389305
v 2.048498 0.229103 -0.088862
v 1.701296 0.184121 -0.097851
v 2.048498 0.190446 0.166217
v 1.701296 0.143469 0.170393
v 1.701296 -0.076988 -0.141633
v 2.048498 -0.052137 -0.129549
v 1.701296 -0.118888 0.134844
v 2.048498 -0.090794 0.125530
v 2.048498 -0.044039 -0.358579
v 2.048498 0.013940 0.388438
v 2.048498 -0.052633 -0.129616
v 2.048498 -0.091291 0.125463
v 2.048498 0.125015 -0.344483
v 2.048498 -0.151699 0.351810
v 2.048498 0.181920 -0.095963
v 2.048498 0.143263 0.159115
v 1.596023 0.018020 -0.203138
v 1.596023 -0.046370 0.221736
v 1.525118 -0.000439 -0.081337
v 1.525118 -0.027911 0.099936
v 1.701296 -0.061709 0.322948
v 2.048498 -0.072161 0.391917
v 2.048498 0.043811 -0.373319
v 1.701296 0.033359 -0.304349
v 2.048498 0.043811 -0.373319
v 2.048498 -0.072161 0.391917
v 1.611756 0.205002 -0.372605
v 1.611756 -0.286959 0.360257
v 0.139775 0.205002 -0.372605
v 0.139775 -0.286959 0.360257
v 1.611756 0.265932 -0.331703
v 1.611756 -0.226029 0.401158
v 0.139775 0.265932 -0.331703
v 0.139775 -0.226029 0.401158
v 0.630435 0.189547 -0.330166
v 1.121096 0.160655 -0.349561
v 1.121096 -0.253534 0.329881
v 0.630435 -0.253534 0.329881
v 1.121096 0.220170 -0.309609
v 0.630435 0.249981 -0.289597
v 0.630435 -0.193100 0.370449
v 1.121096 -0.193100 0.370449
v 1.537387 0.049548 -0.122590
v 1.537387 -0.114439 0.121697
v 0.214144 -0.114439 0.121697
v 0.214144 0.049548 -0.122590
v 0.214144 -0.053988 0.162278
v 0.214144 0.109999 -0.082009
v 1.537387 -0.053988 0.162278
v 1.537387 0.109999 -0.082009
v 0.655225 0.031183 0.219452
v 0.655225 0.195170 -0.024835
v 1.096306 0.031183 0.219452
v 1.096306 0.195170 -0.024835
v 1.096306 -0.172421 0.082775
v 1.096306 -0.008434 -0.161512
v 0.655225 -0.172421 0.082775
v 0.655225 -0.008434 -0.161512
v -0.635399 0.124887 -0.334938
v -0.635399 -0.209061 0.482124
v -1.518072 0.124887 -0.334938
v -1.518072 -0.209061 0.482124
v -0.635399 0.192817 -0.307174
v -0.635399 -0.141131 0.509888
v -1.518072 0.192817 -0.307174
v -1.518072 -0.141131 0.509888
v -1.223848 0.118314 -0.290254
v -0.929623 0.086102 -0.303419
v -0.929623 -0.182454 0.445628
v -1.223848 -0.182454 0.445628
v -0.929623 0.152455 -0.276299
v -1.223848 0.185691 -0.262715
v -1.223848 -0.115077 0.473166
v -0.929623 -0.115077 0.473166
v -0.679995 0.023084 -0.058696
v -0.679995 -0.088232 0.213658
v -1.473476 -0.088232 0.213658
v -1.473476 0.023084 -0.058696
v -1.473476 -0.020835 0.241204
v -1.473476 0.090481 -0.031150
v -0.679995 -0.020835 0.241204
v -0.679995 0.090481 -0.031150
v -1.208982 0.074121 0.280015
v -1.208982 0.185437 0.007661
v -0.944489 0.074121 0.280015
v -0.944489 0.185437 0.007661
v -0.944489 -0.152876 0.187237
v -0.944489 -0.041560 -0.085117
v -1.208982 -0.152876 0.187237
v -1.208982 -0.041560 -0.085117
v 0.164088 -0.122212 0.194667
v 0.169620 0.032922 0.224576
v 0.164088 -0.062437 -0.199755
v 0.169620 0.094593 -0.182356
v 0.229912 -0.111543 0.080617
v 0.229912 -0.086040 -0.087665
v 0.237531 0.083586 -0.064688
v 0.237531 0.057274 0.108931
v 0.066360 -0.059287 -0.295393
v 0.068792 0.120725 -0.277559
v 0.066360 -0.147540 0.286944
v 0.068792 0.029672 0.323247
v 0.072280 0.184122 -0.097851
v 0.072280 0.143469 0.170393
v 0.072280 -0.076988 -0.141633
v 0.072280 -0.118888 0.134844
v 0.177553 0.018020 -0.203137
v 0.177553 -0.046370 0.221736
v 0.248458 -0.000439 -0.081337
v 0.248458 -0.027911 0.099936
v 0.072280 -0.061709 0.322948
v 0.072280 0.033359 -0.304349
v -0.713931 -0.122212 0.194667
v -0.719463 0.032922 0.224576
v -0.713931 -0.062437 -0.199755
v -0.719463 0.094593 -0.182356
v -0.779755 -0.111543 0.080616
v -0.779755 -0.086040 -0.087665
v -0.787374 0.083586 -0.064688
v -0.787374 0.057274 0.108931
v -0.616203 -0.059287 -0.295393
v -0.274921 -0.049583 -0.359420
v -0.274921 0.130736 -0.343616
v -0.618635 0.120725 -0.277559
v -0.274921 -0.157244 0.350970
v -0.616203 -0.147540 0.286944
v -0.618635 0.029672 0.323247
v -0.274921 0.019661 0.389305
v -0.274921 0.229103 -0.088862
v -0.622123 0.184122 -0.097851
v -0.274921 0.190446 0.166217
v -0.622123 0.143469 0.170393
v -0.622123 -0.076988 -0.141633
v -0.274921 -0.052137 -0.129549
v -0.622123 -0.118888 0.134844
v -0.274921 -0.090794 0.125530
v -0.274921 -0.044039 -0.358579
v -0.274921 0.013940 0.388438
v -0.274921 -0.052633 -0.129616
v -0.274921 -0.091291 0.125463
v -0.274921 0.125015 -0.344483
v -0.274921 -0.151699 0.351810
v -0.274921 0.181920 -0.095963
v -0.274921 0.143263 0.159115
v -0.727396 0.018020 -0.203138
v -0.727396 -0.046370 0.221736
v -0.798301 -0.000439 -0.081337
v -0.798301 -0.027911 0.099936
v -0.622123 -0.061709 0.322948
v -0.274921 -0.072161 0.391917
v -0.274921 0.043811 -0.373318
v -0.622123 0.033359 -0.304349
v -0.274921 0.043811 -0.373318
v -0.274921 -0.072161 0.391917
v -1.112229 -0.265770 0.018195
v -1.105162 -0.128874 0.166522
v -1.112229 0.094611 -0.342186
v -1.105162 0.242937 -0.205290
v -1.028135 -0.168368 -0.091025
v -1.028135 -0.014610 -0.244783
v -1.018401 0.142445 -0.092605
v -1.018401 -0.016189 0.066030
v -1.237083 0.170327 -0.438166
v -1.233976 0.341961 -0.283407
v -1.237083 -0.361751 0.093912
v -1.233976 -0.206992 0.265546
v -1.229521 0.270982 -0.050527
v -1.229521 0.025888 0.194566
v -1.229521 0.035599 -0.293432
v -1.229521 -0.217017 -0.040817
v -1.095027 0.179927 -0.284693
v -1.095027 -0.208277 0.103512
v -1.004440 0.068639 -0.173405
v -1.004440 -0.096990 -0.007776
v -1.229521 -0.300754 0.195988
v -1.229521 0.272403 -0.377169
v -2.233959 -0.265770 0.018195
v -2.241026 -0.128874 0.166521
v -2.233959 0.094611 -0.342186
v -2.241026 0.242937 -0.205290
v -2.318054 -0.168368 -0.091026
v -2.318054 -0.014610 -0.244783
v -2.327787 0.142445 -0.092605
v -2.327787 -0.016189 0.066029
v -2.109105 0.170327 -0.438166
v -1.673094 0.228827 -0.496666
v -1.673094 0.402317 -0.343763
v -2.112212 0.341961 -0.283407
v -1.673094 -0.420251 0.152412
v -2.109105 -0.361751 0.093911
v -2.112212 -0.206992 0.265546
v -1.673094 -0.267348 0.325902
v -1.673094 0.310435 -0.007193
v -2.116668 0.270982 -0.050527
v -1.673094 0.077371 0.225871
v -2.116668 0.025888 0.194566
v -2.116668 0.035599 -0.293432
v -1.673094 0.052001 -0.262169
v -2.116668 -0.217016 -0.040817
v -1.673094 -0.181062 -0.029106
v -1.673094 0.233893 -0.491600
v -1.673094 -0.272575 0.320675
v -1.673094 0.051541 -0.262615
v -1.673094 -0.181523 -0.029551
v -1.673094 0.397090 -0.348990
v -1.673094 -0.415185 0.157478
v -1.673094 0.267287 -0.050253
v -1.673094 0.034224 0.182810
v -2.251162 0.179927 -0.284693
v -2.251162 -0.208277 0.103512
v -2.341748 0.068639 -0.173405
v -2.341748 -0.096990 -0.007776
v -2.116668 -0.300754 0.195988
v -1.673094 -0.363771 0.259005
v -1.673094 0.335420 -0.440186
v -2.116668 0.272403 -0.377169
v -1.673094 0.335420 -0.440186
v -1.673094 -0.363771 0.259005
vn 0.6943 0.2448 -0.6768
vn 0.8568 0.0614 0.5120
vn 0.0506 -0.9899 -0.1326
vn 0.0506 -0.9847 -0.1666
vn -0.0055 -0.9887 -0.1498
vn 0.8568 0.2104 -0.4708
vn 0.9919 0.1252 0.0190
vn -0.0758 -0.9859 -0.1494
vn -0.0461 -0.9976 -0.0520
vn 0.4961 0.8584 0.1301
vn 0.1308 0.9802 0.1486
vn 0.5163 0.8136 -0.2673
vn 0.1029 0.9319 -0.3478
vn 0.5163 0.6979 0.4964
vn 0.0963 0.7932 0.6013
vn -0.0453 -0.9685 -0.2447
vn 0.6943 0.0332 0.7190
vn 0.1913 0.0160 0.9814
vn 0.1913 0.3061 -0.9326
vn 0.1846 -0.1256 -0.9747
vn 0.1846 -0.4088 0.8938
vn 0.6844 -0.3347 0.6477
vn 0.9773 -0.2094 -0.0317
vn 0.8409 -0.1529 -0.5191
vn 0.8409 -0.2998 0.4505
vn 0.6844 -0.1278 -0.7178
vn -0.6943 0.2448 -0.6768
vn -0.8568 0.0614 0.5120
vn -0.0506 -0.9899 -0.1326
vn -0.0506 -0.9847 -0.1666
vn 0.0055 -0.9887 -0.1498
vn -0.8568 0.2104 -0.4708
vn -0.9919 0.1252 0.0190
vn -1.0000 0.0005 0.0000
vn 0.0758 -0.9859 -0.1494
vn 1.0000 0.0000 0.0000
vn 0.0461 -0.9976 -0.0520
vn -0.4961 0.8584 0.1301
vn -0.1308 0.9802 0.1486
vn -0.5163 0.8136 -0.2673
vn -0.1029 0.9319 -0.3478
vn -0.5163 0.6979 0.4964
vn -0.0963 0.7932 0.6013
vn 0.0453 -0.9685 -0.2447
vn -0.6943 0.0332 0.7190
vn -0.1913 0.0160 0.9814
vn -0.1913 0.3061 -0.9326
vn -0.1846 -0.1256 -0.9747
vn -0.1846 -0.4088 0.8938
vn -0.6844 -0.3347 0.6477
vn -0.9773 -0.2094 -0.0317
vn -0.8409 -0.1529 -0.5191
vn -0.8409 -0.2998 0.4505
vn -0.6844 -0.1278 -0.7178
vn 0.6943 0.5985 -0.3997
vn 0.8568 -0.2542 0.4486
vn 0.0506 -0.7183 -0.6939
vn 0.0506 -0.6939 -0.7183
vn -0.0055 -0.7071 -0.7071
vn 0.8568 0.4486 -0.2542
vn 0.9919 0.0896 0.0896
vn -0.0758 -0.7051 -0.7051
vn -0.0461 -0.7723 -0.6336
vn 0.4961 0.6139 0.6139
vn 0.1308 0.7010 0.7010
vn 0.5163 0.8136 0.2674
vn 0.1029 0.9566 0.2728
vn 0.5163 0.2674 0.8136
vn 0.0963 0.2819 0.9546
vn -0.0453 -0.6346 -0.7715
vn 0.6943 -0.3997 0.5985
vn 0.1913 -0.5692 0.7996
vn 0.1913 0.7996 -0.5692
vn 0.1846 0.4771 -0.8593
vn 0.1846 -0.8593 0.4771
vn 0.6844 -0.6537 0.3229
vn 0.9773 -0.1498 -0.1498
vn 0.8409 0.1848 -0.5086
vn 0.8409 -0.5086 0.1848
vn 0.6844 0.3229 -0.6537
vn -0.6943 0.5985 -0.3997
vn -0.8568 -0.2542 0.4486
vn -0.0506 -0.7183 -0.6939
vn -0.0506 -0.6939 -0.7183
vn 0.0055 -0.7071 -0.7071
vn -0.8568 0.4486 -0.2542
vn -0.9919 0.0896 0.0896
vn -1.0000 -0.0001 0.0000
vn 0.0758 -0.7051 -0.7051
vn 0.0461 -0.7723 -0.6336
vn -0.4961 0.6139 0.6139
vn -0.1308 0.7010 0.7010
vn -0.5163 0.8136 0.2674
vn -0.1029 0.9566 0.2728
vn -0.5163 0.2674 0.8136
vn -0.0963 0.2819 0.9546
vn 0.0453 -0.6346 -0.7715
vn -0.6943 -0.3997 0.5985
vn -0.1913 -0.5692 0.7996
vn -0.1913 0.7996 -0.5692
vn -0.1846 0.4771 -0.8593
vn -0.1846 -0.8593 0.4771
vn -0.6844 -0.6537 0.3229
vn -0.9773 -0.1498 -0.1498
vn -0.8409 0.1848 -0.5086
vn -0.8409 -0.5086 0.1848
vn -0.6844 0.3229 -0.6537
vn -0.0583 -0.8800 -0.4714
vn -0.9695 0.1366 -0.2035
vn 0.1098 0.7109 0.6947
vn 0.9695 0.1366 -0.2035
vn -0.0890 0.5551 -0.8270
vn -0.0890 -0.5551 0.8270
vn 0.0890 -0.5551 0.8270
vn -0.0000 -0.5574 0.8303
vn 0.0890 0.5551 -0.8270
vn 0.0000 0.5574 -0.8303
vn -0.1098 0.7109 0.6947
vn 0.0000 0.5585 0.8295
vn 0.0583 -0.8800 -0.4714
vn -0.0000 -0.9501 -0.3119
vn -0.0365 -0.6964 -0.7167
vn -0.0000 -0.8303 -0.5574
vn 0.0988 -0.8101 -0.5778
vn 0.1564 -0.8201 -0.5505
vn 0.0347 0.9890 0.1436
vn 0.0000 0.8303 0.5574
vn -0.1098 0.9122 0.3948
vn -0.2265 0.8087 0.5429
vn 0.9695 -0.1366 0.2035
vn 0.0680 0.9411 0.3312
vn 0.2265 0.8087 0.5429
vn -0.9695 -0.1366 0.2035
vn -1.0000 -0.0000 0.0000
vn -0.0583 -0.7696 -0.6359
vn -0.1564 -0.8201 -0.5505
vn -0.0969 -0.9541 -0.2833
vn -0.9887 0.0567 -0.1387
vn 0.1812 0.8276 0.5313
vn 0.9887 0.0567 -0.1387
vn -0.1474 0.3742 -0.9156
vn -0.1474 -0.3742 0.9156
vn 0.1474 -0.3742 0.9156
vn -0.0000 -0.3783 0.9257
vn 0.1474 0.3742 -0.9156
vn 0.0000 0.3783 -0.9257
vn -0.1812 0.8276 0.5313
vn -0.0000 0.7144 0.6998
vn 0.0969 -0.9541 -0.2833
vn -0.0000 -0.9935 -0.1137
vn -0.0608 -0.8258 -0.5607
vn -0.0000 -0.9257 -0.3783
vn 0.1634 -0.9023 -0.3990
vn 0.2553 -0.8950 -0.3658
vn 0.0579 0.9966 -0.0588
vn 0.0000 0.9257 0.3783
vn -0.1812 0.9628 0.2005
vn -0.3616 0.8630 0.3527
vn 0.9887 -0.0567 0.1387
vn 0.1129 0.9845 0.1339
vn 0.3616 0.8630 0.3527
vn -0.9887 -0.0567 0.1387
vn -0.0969 -0.8794 -0.4661
vn -0.2553 -0.8950 -0.3658
usemtl m_orange
s off
f 22//1 10//1 4//1 17//1
f 20//2 8//2 2//2 18//2
f 16//3 5//3 1//3 11//3
f 9//4 3//4 6//4 15//4
f 15//5 6//5 5//5 16//5
f 17//6 4//6 7//6 19//6
f 19//7 7//7 8//7 20//7
f 44//8 15//8 16//8 46//8
f 32//9 9//9 15//9 44//9
f 7//10 13//10 14//10 8//10
f 13//11 39//11 41//11 14//11
f 4//12 10//12 13//12 7//12
f 10//13 33//13 39//13 13//13
f 8//14 14//14 12//14 2//14
f 14//15 41//15 38//15 12//15
f 46//16 16//16 11//16 35//16
f 18//17 2//17 12//17 21//17
f 21//18 12//18 38//18 60//18
f 61//19 33//19 10//19 22//19
f 32//20 61//20 22//20 9//20
f 11//21 21//21 60//21 35//21
f 1//22 18//22 21//22 11//22
f 6//23 19//23 20//23 5//23
f 3//24 17//24 19//24 6//24
f 5//25 20//25 18//25 1//25
f 9//26 22//26 17//26 3//26
f 62//27 55//27 26//27 34//27
f 58//28 56//28 24//28 30//28
f 45//29 36//29 23//29 27//29
f 31//30 43//30 28//30 25//30
f 43//31 45//31 27//31 28//31
f 55//32 57//32 29//32 26//32
f 57//33 58//33 30//33 29//33
f 49//34 50//34 46//34 44//34
f 44//35 46//35 45//35 43//35
f 47//36 49//36 44//36 32//36
f 32//37 44//37 43//37 31//37
f 29//38 30//38 42//38 40//38
f 40//39 42//39 41//39 39//39
f 26//40 29//40 40//40 34//40
f 34//41 40//41 39//41 33//41
f 30//42 24//42 37//42 42//42
f 42//43 37//43 38//43 41//43
f 50//36 52//36 35//36 46//36
f 46//44 35//44 36//44 45//44
f 56//45 59//45 37//45 24//45
f 59//46 60//46 38//46 37//46
f 63//36 61//36 33//36 51//36
f 61//47 62//47 34//47 33//47
f 39//36 41//36 54//36 53//36
f 33//36 39//36 53//36 51//36
f 41//36 38//36 48//36 54//36
f 60//36 64//36 48//36 38//36
f 35//36 52//36 64//36 60//36
f 32//48 31//48 62//48 61//48
f 47//36 32//36 61//36 63//36
f 36//49 35//49 60//49 59//49
f 23//50 36//50 59//50 56//50
f 28//51 27//51 58//51 57//51
f 25//52 28//52 57//52 55//52
f 27//53 23//53 56//53 58//53
f 31//54 25//54 55//54 62//54
f 214//55 202//55 196//55 209//55
f 212//56 200//56 194//56 210//56
f 208//57 197//57 193//57 203//57
f 201//58 195//58 198//58 207//58
f 207//59 198//59 197//59 208//59
f 209//60 196//60 199//60 211//60
f 211//61 199//61 200//61 212//61
f 236//62 207//62 208//62 238//62
f 224//63 201//63 207//63 236//63
f 199//64 205//64 206//64 200//64
f 205//65 231//65 233//65 206//65
f 196//66 202//66 205//66 199//66
f 202//67 225//67 231//67 205//67
f 200//68 206//68 204//68 194//68
f 206//69 233//69 230//69 204//69
f 238//70 208//70 203//70 227//70
f 210//71 194//71 204//71 213//71
f 213//72 204//72 230//72 252//72
f 253//73 225//73 202//73 214//73
f 224//74 253//74 214//74 201//74
f 203//75 213//75 252//75 227//75
f 193//76 210//76 213//76 203//76
f 198//77 211//77 212//77 197//77
f 195//78 209//78 211//78 198//78
f 197//79 212//79 210//79 193//79
f 201//80 214//80 209//80 195//80
f 254//81 247//81 218//81 226//81
f 250//82 248//82 216//82 222//82
f 237//83 228//83 215//83 219//83
f 223//84 235//84 220//84 217//84
f 235//85 237//85 219//85 220//85
f 247//86 249//86 221//86 218//86
f 249//87 250//87 222//87 221//87
f 241//88 242//88 238//88 236//88
f 236//89 238//89 237//89 235//89
f 239//36 241//36 236//36 224//36
f 224//90 236//90 235//90 223//90
f 221//91 222//91 234//91 232//91
f 232//92 234//92 233//92 231//92
f 218//93 221//93 232//93 226//93
f 226//94 232//94 231//94 225//94
f 222//95 216//95 229//95 234//95
f 234//96 229//96 230//96 233//96
f 242//36 244//36 227//36 238//36
f 238//97 227//97 228//97 237//97
f 248//98 251//98 229//98 216//98
f 251//99 252//99 230//99 229//99
f 255//36 253//36 225//36 243//36
f 253//100 254//100 226//100 225//100
f 231//36 233//36 246//36 245//36
f 225//36 231//36 245//36 243//36
f 233//36 230//36 240//36 246//36
f 252//36 256//36 240//36 230//36
f 227//36 244//36 256//36 252//36
f 224//101 223//101 254//101 253//101
f 239//36 224//36 253//36 255//36
f 228//102 227//102 252//102 251//102
f 215//103 228//103 251//103 248//103
f 220//104 219//104 250//104 249//104
f 217//105 220//105 249//105 247//105
f 219//106 215//106 248//106 250//106
f 223//107 217//107 247//107 254//107
usemtl m_yellow
f 95//108 76//108 68//108 83//108
f 83//109 68//109 72//109 85//109
f 91//110 80//110 70//110 87//110
f 87//111 70//111 66//111 82//111
f 74//112 77//112 69//112 65//112
f 80//113 75//113 66//113 70//113
f 72//114 68//114 76//114 79//114
f 79//115 76//115 75//115 80//115
f 67//116 71//116 78//116 73//116
f 73//117 78//117 77//117 74//117
f 85//118 72//118 79//118 89//118
f 89//119 79//119 80//119 91//119
f 82//120 66//120 75//120 93//120
f 93//121 75//121 76//121 95//121
f 74//122 94//122 96//122 73//122
f 94//123 93//123 95//123 96//123
f 65//124 81//124 94//124 74//124
f 81//125 82//125 93//125 94//125
f 78//126 90//126 92//126 77//126
f 90//127 89//127 91//127 92//127
f 71//128 86//128 90//128 78//128
f 86//129 85//129 89//129 90//129
f 69//130 88//130 81//130 65//130
f 88//36 87//36 82//36 81//36
f 77//131 92//131 88//131 69//131
f 92//132 91//132 87//132 88//132
f 67//133 84//133 86//133 71//133
f 84//134 83//134 85//134 86//134
f 73//135 96//135 84//135 67//135
f 96//136 95//136 83//136 84//136
f 127//137 108//137 100//137 115//137
f 115//138 100//138 104//138 117//138
f 123//139 112//139 102//139 119//139
f 119//140 102//140 98//140 114//140
f 106//141 109//141 101//141 97//141
f 112//142 107//142 98//142 102//142
f 104//143 100//143 108//143 111//143
f 111//144 108//144 107//144 112//144
f 99//145 103//145 110//145 105//145
f 105//146 110//146 109//146 106//146
f 117//147 104//147 111//147 121//147
f 121//148 111//148 112//148 123//148
f 114//149 98//149 107//149 125//149
f 125//150 107//150 108//150 127//150
f 106//151 126//151 128//151 105//151
f 126//152 125//152 127//152 128//152
f 97//153 113//153 126//153 106//153
f 113//154 114//154 125//154 126//154
f 110//155 122//155 124//155 109//155
f 122//156 121//156 123//156 124//156
f 103//157 118//157 122//157 110//157
f 118//158 117//158 121//158 122//158
f 101//159 120//159 113//159 97//159
f 120//36 119//36 114//36 113//36
f 109//160 124//160 120//160 101//160
f 124//161 123//161 119//161 120//161
f 99//162 116//162 118//162 103//162
f 116//134 115//134 117//134 118//134
f 105//163 128//163 116//163 99//163
f 128//164 127//164 115//164 116//164
usemtl m_brown
f 150//1 138//1 132//1 145//1
f 148//2 136//2 130//2 146//2
f 144//3 133//3 129//3 139//3
f 137//4 131//4 134//4 143//4
f 143//5 134//5 133//5 144//5
f 145//6 132//6 135//6 147//6
f 147//7 135//7 136//7 148//7
f 172//8 143//8 144//8 174//8
f 160//9 137//9 143//9 172//9
f 135//10 141//10 142//10 136//10
f 141//11 167//11 169//11 142//11
f 132//12 138//12 141//12 135//12
f 138//13 161//13 167//13 141//13
f 136//14 142//14 140//14 130//14
f 142//15 169//15 166//15 140//15
f 174//16 144//16 139//16 163//16
f 146//17 130//17 140//17 149//17
f 149//18 140//18 166//18 188//18
f 189//19 161//19 138//19 150//19
f 160//20 189//20 150//20 137//20
f 139//21 149//21 188//21 163//21
f 129//22 146//22 149//22 139//22
f 134//23 147//23 148//23 133//23
f 131//24 145//24 147//24 134//24
f 133//25 148//25 146//25 129//25
f 137//26 150//26 145//26 131//26
f 190//27 183//27 154//27 162//27
f 186//28 184//28 152//28 158//28
f 173//29 164//29 151//29 155//29
f 159//30 171//30 156//30 153//30
f 171//31 173//31 155//31 156//31
f 183//32 185//32 157//32 154//32
f 185//33 186//33 158//33 157//33
f 177//134 178//134 174//134 172//134
f 172//35 174//35 173//35 171//35
f 175//36 177//36 172//36 160//36
f 160//37 172//37 171//37 159//37
f 157//38 158//38 170//38 168//38
f 168//39 170//39 169//39 167//39
f 154//40 157//40 168//40 162//40
f 162//41 168//41 167//41 161//41
f 158//42 152//42 165//42 170//42
f 170//43 165//43 166//43 169//43
f 178//36 180//36 163//36 174//36
f 174//44 163//44 164//44 173//44
f 184//45 187//45 165//45 152//45
f 187//46 188//46 166//46 165//46
f 191//36 189//36 161//36 179//36
f 189//47 190//47 162//47 161//47
f 167//36 169//36 182//36 181//36
f 161//36 167//36 181//36 179//36
f 169//36 166//36 176//36 182//36
f 188//36 192//36 176//36 166//36
f 163//36 180//36 192//36 188//36
f 160//48 159//48 190//48 189//48
f 175//36 160//36 189//36 191//36
f 164//49 163//49 188//49 187//49
f 151//50 164//50 187//50 184//50
f 156//51 155//51 186//51 185//51
f 153//52 156//52 185//52 183//52
f 155//53 151//53 184//53 186//53
f 159//54 153//54 183//54 190//54
