# Blender v2.81 (sub 16) OBJ File: 'bathroom.blend'
# www.blender.org
mtllib sink.mtl
o sink_Cube.014
v -1.177903 0.000000 0.597544
v -1.177903 0.312723 0.597544
v -1.177903 0.000000 -0.822213
v -1.177903 0.312723 -0.822213
v 1.177903 0.000000 0.597544
v 1.128837 0.312723 0.538037
v 1.177903 0.000000 -0.822213
v 1.128837 0.312723 -0.762706
v -0.559003 0.000000 -0.822213
v -0.485669 0.312723 -0.762706
v -0.559003 0.000000 0.597544
v -0.485669 0.312723 0.538037
v -0.559003 0.312723 -0.822213
v 1.202171 0.312723 -0.822213
v 1.202171 0.312723 0.597544
v -0.559003 0.312723 0.597544
v -0.031764 0.206730 -0.391432
v 0.650664 0.206730 -0.391432
v 0.650664 0.206730 0.166763
v -0.031764 0.206730 0.166763
v -1.177903 0.000000 0.822214
v -1.177903 0.312723 0.822214
v 1.202171 0.312723 0.822214
v 1.177903 0.000000 0.822214
v -0.559003 0.000000 0.822214
v -0.559003 0.312723 0.822214
vn -1.0000 0.0000 0.0000
vn 0.0000 0.0000 -1.0000
vn 0.9970 -0.0774 0.0000
vn 0.0000 -1.0000 0.0000
vn 0.0000 1.0000 0.0000
vn 0.2274 0.9738 0.0000
vn 0.0000 0.9616 0.2745
vn -0.2164 0.9763 0.0000
vn 0.0000 0.9616 -0.2745
vn 0.0000 0.0000 1.0000
usemtl m_white
s off
f 1//1 2//1 4//1 3//1
f 9//2 13//2 14//2 7//2
f 7//3 14//3 15//3 5//3
f 5//3 15//3 23//3 24//3
f 9//4 7//4 5//4 11//4
f 13//5 4//5 2//5 16//5
f 10//6 12//6 20//6 17//6
f 3//4 9//4 11//4 1//4
f 2//1 1//1 21//1 22//1
f 3//2 4//2 13//2 9//2
f 10//5 8//5 14//5 13//5
f 8//5 6//5 15//5 14//5
f 6//5 12//5 16//5 15//5
f 12//5 10//5 13//5 16//5
f 18//5 17//5 20//5 19//5
f 8//7 10//7 17//7 18//7
f 6//8 8//8 18//8 19//8
f 12//9 6//9 19//9 20//9
f 25//10 26//10 22//10 21//10
f 24//10 23//10 26//10 25//10
f 1//4 11//4 25//4 21//4
f 11//4 5//4 24//4 25//4
f 15//5 16//5 26//5 23//5
f 16//5 2//5 22//5 26//5
