# Blender v2.81 (sub 16) OBJ File: 'bathroom.blend'
# www.blender.org
mtllib towel2.mtl
o towel2_Cube.001
v 0.055191 0.078114 0.261360
v 0.055191 0.096339 0.261360
v 0.055191 0.078114 -0.757412
v 0.055191 0.096339 -0.757412
v 0.471098 0.078114 0.261360
v 0.471098 0.096339 0.261360
v 0.471098 0.078114 -0.757412
v 0.471098 0.096339 -0.757412
v 0.055191 0.078114 0.243581
v 0.055191 0.096339 0.243581
v 0.471098 0.078114 0.243581
v 0.471098 0.096339 0.243581
v 0.055191 -0.261680 0.243581
v 0.055191 -0.261680 0.261360
v 0.471098 -0.261680 0.261360
v 0.471098 -0.261680 0.243581
v -0.471098 0.078114 0.261360
v -0.471098 0.096339 0.261360
v -0.471098 0.078114 -0.757412
v -0.471098 0.096339 -0.757412
v -0.055191 0.078114 0.261360
v -0.055191 0.096339 0.261360
v -0.055191 0.078114 -0.757412
v -0.055191 0.096339 -0.757412
v -0.471098 0.078114 0.243581
v -0.471098 0.096339 0.243581
v -0.055191 0.078114 0.243581
v -0.055191 0.096339 0.243581
v -0.471098 -0.261680 0.243581
v -0.471098 -0.261680 0.261360
v -0.055191 -0.261680 0.261360
v -0.055191 -0.261680 0.243581
vn -1.0000 0.0000 0.0000
vn 0.0000 0.0000 -1.0000
vn 1.0000 0.0000 0.0000
vn 0.0000 0.0000 1.0000
vn 0.0000 1.0000 0.0000
vn 0.0000 -1.0000 0.0000
usemtl m_pink
s off
f 9//1 10//1 4//1 3//1
f 3//2 4//2 8//2 7//2
f 11//3 12//3 6//3 5//3
f 5//4 6//4 2//4 1//4
f 1//1 9//1 13//1 14//1
f 12//5 10//5 2//5 6//5
f 8//5 4//5 10//5 12//5
f 3//6 7//6 11//6 9//6
f 7//3 8//3 12//3 11//3
f 1//1 2//1 10//1 9//1
f 13//6 16//6 15//6 14//6
f 9//2 11//2 16//2 13//2
f 11//3 5//3 15//3 16//3
f 5//4 1//4 14//4 15//4
usemtl m_blue
f 25//1 26//1 20//1 19//1
f 19//2 20//2 24//2 23//2
f 27//3 28//3 22//3 21//3
f 21//4 22//4 18//4 17//4
f 17//1 25//1 29//1 30//1
f 28//5 26//5 18//5 22//5
f 24//5 20//5 26//5 28//5
f 19//6 23//6 27//6 25//6
f 23//3 24//3 28//3 27//3
f 17//1 18//1 26//1 25//1
f 29//6 32//6 31//6 30//6
f 25//2 27//2 32//2 29//2
f 27//3 21//3 31//3 32//3
f 21//4 17//4 30//4 31//4
